<svg xmlns="http://www.w3.org/2000/svg" width="286" height="58" viewBox="0 0 143 29">
  <metadata><?xpacket begin="﻿" id="W5M0MpCehiHzreSzNTczkc9d"?>
<x:xmpmeta xmlns:x="adobe:ns:meta/" x:xmptk="Adobe XMP Core 5.6-c138 79.159824, 2016/09/14-01:09:01        ">
   <rdf:RDF xmlns:rdf="http://www.w3.org/1999/02/22-rdf-syntax-ns#">
      <rdf:Description rdf:about=""/>
   </rdf:RDF>
</x:xmpmeta>
                                                                                                    
                                                                                                    
                                                                                                    
                                                                                                    
                                                                                                    
                                                                                                    
                                                                                                    
                                                                                                    
                                                                                                    
                                                                                                    
                                                                                                    
                                                                                                    
                                                                                                    
                                                                                                    
                                                                                                    
                                                                                                    
                                                                                                    
                                                                                                    
                                                                                                    
                                                                                                    
                           
<?xpacket end="w"?></metadata>
<defs>
    <style>
      .cls-1 {
        fill: #0099da;
        fill-rule: evenodd;
      }
    </style>
  </defs>
  <path id="logo_new_copy_2" data-name="logo_new copy 2" class="cls-1" d="M65.849,20.653h3.166V4.236L65.849,7.215V20.653Zm-7.025,0h3.166V9.035H58.824V20.653Zm0-13.469h3.166V4.3H58.825V7.185Zm-7.116,1.5a4.575,4.575,0,0,0-4.14,2.26,3.248,3.248,0,0,0-3.357-2.26,4.658,4.658,0,0,0-4.04,2.3H40.125c0-.587,0-1.985,0-1.985H37.3v11.66h3.082V14.751c0-2.143,1.188-3.692,2.614-3.692,1.265,0,2.016,1.1,2.016,2.542v7.058h2.935V14.864c0-2.346,1.1-3.805,2.568-3.805,1.311,0,2.063,1.1,2.063,3.106v6.493h3.1V13.849C55.68,10.984,54.652,8.686,51.708,8.686Zm58.37,0c-3.8,0-6.409,2.388-6.409,6.133a6.318,6.318,0,0,0,12.634.023A5.911,5.911,0,0,0,110.078,8.689ZM109.963,18.8c-1.878-.008-3-1.674-3-3.952,0-2.482,1.188-4,3.028-4,1.863,0,3.074,1.5,3.074,3.892S111.891,18.8,109.963,18.8ZM125.106,8.681a4.215,4.215,0,0,0-3.838,2.079h-0.046V8.967l-3.077-.016v11.7h3.036V15.4a5.88,5.88,0,0,1,.506-2.707,3,3,0,0,1,2.5-1.595c2.024,0,2.224,1.73,2.224,3.963v5.595h3.035V13.885C129.445,10.772,128.257,8.681,125.106,8.681Zm-23.964,9.754c-1.495,0-1.924-.872-1.924-2.632V11.351h3V8.993h-3v-4.7l-2.9,2.752V8.993H94v2.358h2.277v5.061c0,3.068,1.235,4.459,3.948,4.459a7.2,7.2,0,0,0,2.2-.293l-0.069-2.324A4.359,4.359,0,0,1,101.142,18.435Zm41.583-3.467c0-4.2-1.855-6.287-5.282-6.287a5.843,5.843,0,0,0-6.018,6.106c0,3.9,2.638,6.219,6.524,6.219a9.732,9.732,0,0,0,3.948-.767l-0.046-2.482a6.762,6.762,0,0,1-3.534.948c-2.139,0-3.695-1.317-3.741-3.1h8.1A5.568,5.568,0,0,0,142.725,14.968ZM134.53,13.7c0.178-2.056,1.441-2.873,2.8-2.873,1.518,0,2.568.771,2.568,2.873H134.53Zm-51.924,1.27c0-4.2-1.855-6.287-5.282-6.287a5.843,5.843,0,0,0-6.018,6.106c0,3.9,2.638,6.219,6.524,6.219a9.734,9.734,0,0,0,3.948-.767l-0.046-2.482a6.763,6.763,0,0,1-3.534.948c-2.139,0-3.7-1.317-3.741-3.1h8.1A5.545,5.545,0,0,0,82.606,14.968Zm-8.2-1.27c0.178-2.056,1.442-2.873,2.8-2.873,1.518,0,2.568.771,2.568,2.873H74.411Zm15.206,0.071c-1.679-.542-2.247-0.9-2.247-1.685s0.844-1.3,1.879-1.3A6.647,6.647,0,0,1,92,11.405V9.069a8.989,8.989,0,0,0-2.885-.429c-2.829,0-4.776,1.437-4.776,3.648,0,1.714,1.066,2.511,3.32,3.278,1.886,0.654,2.323,1.053,2.323,1.866,0,0.834-.981,1.324-2.016,1.324a8.053,8.053,0,0,1-3.281-.747v2.429a10.816,10.816,0,0,0,3.442.529c2.875,0,4.937-1.391,4.937-3.783C93.059,15.2,91.709,14.446,89.617,13.769ZM15.192,28.536L0.709,14.33,15.192,0.123,29.674,14.33Z"/>
</svg>
